# xmcd
#
# Track frame offsets:
# 150
# 14348
# 30052
# 49312
# 68526
# 82074
# 93646
# 110754
# 123865
# 142998
# 154371
# 172217
# 191623
# 215546
# 236085
# 250876
# 267987
# 287519
# 303774
#
# Disc length: 4235 seconds
#
#
# Revision: 0
# Processed by: cddbd v1.5.2PL0 Copyright (c) Steve Scherf et al.
# Submitted via: FreeRIP 2.53 
#
DISCID=0d108913
DTITLE=Carl Sonny Leyland and Charlie Booty - Fort Worth Stomp
DYEAR=1900
DGENRE=Boogie Woogie
TTITLE0=Fort Worth Stomp
TTITLE1=Walkin' On
TTITLE2=Pallet On Your Floor
TTITLE3=Spread Yo' Stuff
TTITLE4=Ace High Straight
TTITLE5=Boo-Ley Stomp
TTITLE6=Backwater Risin'
TTITLE7=Texas Shindig
TTITLE8=Organ Grinder Blues
TTITLE9=Paradise Alley Shakedown
TTITLE10=Evansville Getaway
TTITLE11=Good Time Flat Blues
TTITLE12=Sugar Blues
TTITLE13=Choo Choo Ch' Boogie
TTITLE14=Ventura Strut
TTITLE15=Jimmie' Stuff
TTITLE16=Careless Love
TTITLE17=Pullman Car Boogie
TTITLE18=That Oughta Get It
EXTD=
EXTT0=
EXTT1=
EXTT2=
EXTT3=
EXTT4=
EXTT5=
EXTT6=
EXTT7=
EXTT8=
EXTT9=
EXTT10=
EXTT11=
EXTT12=
EXTT13=
EXTT14=
EXTT15=
EXTT16=
EXTT17=
EXTT18=
PLAYORDER=
